<svg width="130" height="32" viewBox="0 0 130 32" fill="none" xmlns="http://www.w3.org/2000/svg">
<rect width="32" height="32" rx="6" fill="#17181C"/>
<path d="M16 8L22.9282 12V20L16 24L9.0718 20V12L16 8Z" fill="#17181C" stroke="white" stroke-width="2"/>
<path d="M40.264 9.672H44.728C45.4747 9.672 46.1947 9.78933 46.888 10.024C47.5813 10.248 48.1947 10.5947 48.728 11.064C49.2613 11.5333 49.688 12.1253 50.008 12.84C50.328 13.544 50.488 14.376 50.488 15.336C50.488 16.3067 50.3013 17.1493 49.928 17.864C49.5653 18.568 49.0907 19.1547 48.504 19.624C47.928 20.0827 47.2827 20.4293 46.568 20.664C45.864 20.888 45.1707 21 44.488 21H40.264V9.672ZM43.784 19.176C44.4133 19.176 45.0053 19.1067 45.56 18.968C46.1253 18.8187 46.616 18.5947 47.032 18.296C47.448 17.9867 47.7733 17.592 48.008 17.112C48.2533 16.6213 48.376 16.0293 48.376 15.336C48.376 14.6533 48.2693 14.0667 48.056 13.576C47.8427 13.0853 47.544 12.6907 47.16 12.392C46.7867 12.0827 46.3387 11.8587 45.816 11.72C45.304 11.5707 44.7387 11.496 44.12 11.496H42.28V19.176H43.784ZM52.2606 13.32H54.1806V21H52.2606V13.32ZM51.9886 10.712C51.9886 10.4027 52.1006 10.136 52.3246 9.912C52.5593 9.67733 52.8526 9.56 53.2046 9.56C53.5566 9.56 53.85 9.672 54.0846 9.896C54.33 10.1093 54.4526 10.3813 54.4526 10.712C54.4526 11.0427 54.33 11.32 54.0846 11.544C53.85 11.7573 53.5566 11.864 53.2046 11.864C52.8526 11.864 52.5593 11.752 52.3246 11.528C52.1006 11.2933 51.9886 11.0213 51.9886 10.712ZM60.4809 15.448C60.1075 14.9253 59.6062 14.664 58.9769 14.664C58.7209 14.664 58.4702 14.728 58.2249 14.856C57.9795 14.984 57.8569 15.192 57.8569 15.48C57.8569 15.7147 57.9582 15.8853 58.1609 15.992C58.3635 16.0987 58.6195 16.1893 58.9289 16.264C59.2382 16.3387 59.5689 16.4187 59.9209 16.504C60.2835 16.5787 60.6195 16.7013 60.9289 16.872C61.2382 17.032 61.4942 17.256 61.6969 17.544C61.8995 17.832 62.0009 18.2267 62.0009 18.728C62.0009 19.1867 61.8995 19.576 61.6969 19.896C61.5049 20.2053 61.2489 20.456 60.9289 20.648C60.6195 20.84 60.2675 20.9787 59.8729 21.064C59.4782 21.1493 59.0835 21.192 58.6889 21.192C58.0915 21.192 57.5422 21.1067 57.0409 20.936C56.5395 20.7653 56.0915 20.456 55.6969 20.008L56.9769 18.808C57.2222 19.0853 57.4835 19.3147 57.7609 19.496C58.0489 19.6667 58.3955 19.752 58.8009 19.752C58.9395 19.752 59.0835 19.736 59.2329 19.704C59.3822 19.672 59.5209 19.6187 59.6489 19.544C59.7769 19.4693 59.8782 19.3787 59.9529 19.272C60.0382 19.1547 60.0809 19.0213 60.0809 18.872C60.0809 18.6053 59.9795 18.408 59.7769 18.28C59.5742 18.152 59.3182 18.0507 59.0089 17.976C58.6995 17.8907 58.3635 17.816 58.0009 17.752C57.6489 17.6773 57.3182 17.5653 57.0089 17.416C56.6995 17.256 56.4435 17.0373 56.2409 16.76C56.0382 16.4827 55.9369 16.0987 55.9369 15.608C55.9369 15.1813 56.0222 14.8133 56.1929 14.504C56.3742 14.184 56.6089 13.9227 56.8969 13.72C57.1849 13.5173 57.5155 13.368 57.8889 13.272C58.2622 13.176 58.6409 13.128 59.0249 13.128C59.5369 13.128 60.0435 13.2187 60.5449 13.4C61.0462 13.5707 61.4515 13.8693 61.7609 14.296L60.4809 15.448ZM62.5983 14.952V13.32H64.1823V11.096H66.1023V13.32H68.2143V14.952H66.1023V18.312C66.1023 18.696 66.1716 19 66.3103 19.224C66.4596 19.448 66.7476 19.56 67.1743 19.56C67.3449 19.56 67.5316 19.544 67.7343 19.512C67.9369 19.4693 68.0969 19.4053 68.2143 19.32V20.936C68.0116 21.032 67.7609 21.096 67.4623 21.128C67.1743 21.1707 66.9183 21.192 66.6943 21.192C66.1823 21.192 65.7609 21.1333 65.4303 21.016C65.1103 20.9093 64.8543 20.744 64.6623 20.52C64.4809 20.2853 64.3529 19.9973 64.2783 19.656C64.2143 19.3147 64.1823 18.92 64.1823 18.472V14.952H62.5983ZM69.713 13.32H71.633V14.536H71.665C71.8783 14.088 72.1823 13.7413 72.577 13.496C72.9717 13.2507 73.425 13.128 73.937 13.128C74.0543 13.128 74.1663 13.1387 74.273 13.16C74.3903 13.1813 74.5077 13.208 74.625 13.24V15.096C74.465 15.0533 74.305 15.0213 74.145 15C73.9957 14.968 73.8463 14.952 73.697 14.952C73.249 14.952 72.8863 15.0373 72.609 15.208C72.3423 15.368 72.1343 15.5547 71.985 15.768C71.8463 15.9813 71.7503 16.1947 71.697 16.408C71.6543 16.6213 71.633 16.7813 71.633 16.888V21H69.713V13.32ZM75.9638 13.32H77.8838V21H75.9638V13.32ZM75.6918 10.712C75.6918 10.4027 75.8038 10.136 76.0278 9.912C76.2624 9.67733 76.5558 9.56 76.9078 9.56C77.2598 9.56 77.5531 9.672 77.7878 9.896C78.0331 10.1093 78.1558 10.3813 78.1558 10.712C78.1558 11.0427 78.0331 11.32 77.7878 11.544C77.5531 11.7573 77.2598 11.864 76.9078 11.864C76.5558 11.864 76.2624 11.752 76.0278 11.528C75.8038 11.2933 75.6918 11.0213 75.6918 10.712ZM80.088 8.904H82.008V14.296H82.056C82.152 14.168 82.2747 14.04 82.424 13.912C82.5733 13.7733 82.7547 13.6453 82.968 13.528C83.1813 13.4107 83.4267 13.3147 83.704 13.24C83.9813 13.1653 84.3013 13.128 84.664 13.128C85.208 13.128 85.7093 13.2347 86.168 13.448C86.6267 13.6507 87.016 13.9333 87.336 14.296C87.6667 14.6587 87.9227 15.0853 88.104 15.576C88.2853 16.0667 88.376 16.5947 88.376 17.16C88.376 17.7253 88.2907 18.2533 88.12 18.744C87.9493 19.2347 87.6987 19.6613 87.368 20.024C87.0373 20.3867 86.6373 20.6747 86.168 20.888C85.6987 21.0907 85.1707 21.192 84.584 21.192C84.04 21.192 83.5333 21.0853 83.064 20.872C82.5947 20.6587 82.2213 20.3173 81.944 19.848H81.912V21H80.088V8.904ZM86.456 17.16C86.456 16.8613 86.4027 16.5733 86.296 16.296C86.2 16.0187 86.0507 15.7733 85.848 15.56C85.656 15.3467 85.4213 15.176 85.144 15.048C84.8667 14.92 84.552 14.856 84.2 14.856C83.848 14.856 83.5333 14.92 83.256 15.048C82.9787 15.176 82.7387 15.3467 82.536 15.56C82.344 15.7733 82.1947 16.0187 82.088 16.296C81.992 16.5733 81.944 16.8613 81.944 17.16C81.944 17.4587 81.992 17.7467 82.088 18.024C82.1947 18.3013 82.344 18.5467 82.536 18.76C82.7387 18.9733 82.9787 19.144 83.256 19.272C83.5333 19.4 83.848 19.464 84.2 19.464C84.552 19.464 84.8667 19.4 85.144 19.272C85.4213 19.144 85.656 18.9733 85.848 18.76C86.0507 18.5467 86.2 18.3013 86.296 18.024C86.4027 17.7467 86.456 17.4587 86.456 17.16ZM97.1741 21H95.3501V19.768H95.3181C95.1368 20.152 94.8595 20.488 94.4861 20.776C94.1128 21.0533 93.6061 21.192 92.9661 21.192C92.4541 21.192 92.0168 21.112 91.6541 20.952C91.3021 20.7813 91.0141 20.5573 90.7901 20.28C90.5661 19.992 90.4061 19.6667 90.3101 19.304C90.2141 18.9413 90.1661 18.5627 90.1661 18.168V13.32H92.0861V17.208C92.0861 17.4213 92.0968 17.6613 92.1181 17.928C92.1395 18.184 92.1928 18.4293 92.2781 18.664C92.3741 18.888 92.5128 19.08 92.6941 19.24C92.8861 19.3893 93.1528 19.464 93.4941 19.464C93.8141 19.464 94.0808 19.4107 94.2941 19.304C94.5181 19.1973 94.6995 19.0533 94.8381 18.872C94.9875 18.6907 95.0941 18.4827 95.1581 18.248C95.2221 18.0133 95.2541 17.768 95.2541 17.512V13.32H97.1741V21ZM99.5296 9.672H101.546V14.184H106.842V9.672H108.858V21H106.842V16.008H101.546V21H99.5296V9.672ZM118.221 21H116.397V19.768H116.365C116.184 20.152 115.906 20.488 115.533 20.776C115.16 21.0533 114.653 21.192 114.013 21.192C113.501 21.192 113.064 21.112 112.701 20.952C112.349 20.7813 112.061 20.5573 111.837 20.28C111.613 19.992 111.453 19.6667 111.357 19.304C111.261 18.9413 111.213 18.5627 111.213 18.168V13.32H113.133V17.208C113.133 17.4213 113.144 17.6613 113.165 17.928C113.186 18.184 113.24 18.4293 113.325 18.664C113.421 18.888 113.56 19.08 113.741 19.24C113.933 19.3893 114.2 19.464 114.541 19.464C114.861 19.464 115.128 19.4107 115.341 19.304C115.565 19.1973 115.746 19.0533 115.885 18.872C116.034 18.6907 116.141 18.4827 116.205 18.248C116.269 18.0133 116.301 17.768 116.301 17.512V13.32H118.221V21ZM120.401 8.904H122.321V14.296H122.369C122.465 14.168 122.587 14.04 122.737 13.912C122.886 13.7733 123.067 13.6453 123.281 13.528C123.494 13.4107 123.739 13.3147 124.016 13.24C124.294 13.1653 124.614 13.128 124.977 13.128C125.521 13.128 126.022 13.2347 126.481 13.448C126.939 13.6507 127.329 13.9333 127.649 14.296C127.979 14.6587 128.235 15.0853 128.417 15.576C128.598 16.0667 128.689 16.5947 128.689 17.16C128.689 17.7253 128.603 18.2533 128.433 18.744C128.262 19.2347 128.011 19.6613 127.681 20.024C127.35 20.3867 126.95 20.6747 126.481 20.888C126.011 21.0907 125.483 21.192 124.897 21.192C124.353 21.192 123.846 21.0853 123.377 20.872C122.907 20.6587 122.534 20.3173 122.257 19.848H122.225V21H120.401V8.904ZM126.769 17.16C126.769 16.8613 126.715 16.5733 126.609 16.296C126.513 16.0187 126.363 15.7733 126.161 15.56C125.969 15.3467 125.734 15.176 125.457 15.048C125.179 14.92 124.865 14.856 124.513 14.856C124.161 14.856 123.846 14.92 123.569 15.048C123.291 15.176 123.051 15.3467 122.849 15.56C122.657 15.7733 122.507 16.0187 122.401 16.296C122.305 16.5733 122.257 16.8613 122.257 17.16C122.257 17.4587 122.305 17.7467 122.401 18.024C122.507 18.3013 122.657 18.5467 122.849 18.76C123.051 18.9733 123.291 19.144 123.569 19.272C123.846 19.4 124.161 19.464 124.513 19.464C124.865 19.464 125.179 19.4 125.457 19.272C125.734 19.144 125.969 18.9733 126.161 18.76C126.363 18.5467 126.513 18.3013 126.609 18.024C126.715 17.7467 126.769 17.4587 126.769 17.16Z" fill="#17181C"/>
</svg>
