<svg width="24" height="24" viewBox="0 0 24 24" fill="none" xmlns="http://www.w3.org/2000/svg">
<mask id="mask0_196_5898" style="mask-type:alpha" maskUnits="userSpaceOnUse" x="0" y="0" width="24" height="24">
<rect width="24" height="24" fill="#D9D9D9"/>
</mask>
<g mask="url(#mask0_196_5898)">
<path d="M13.25 8.09138V4.4086C13.25 4.14775 13.3369 3.93111 13.5107 3.75868C13.6845 3.58623 13.8998 3.5 14.1568 3.5H19.5973C19.8542 3.5 20.0688 3.58623 20.2413 3.75868C20.4137 3.93111 20.5 4.14775 20.5 4.4086V8.09138C20.5 8.35224 20.413 8.56889 20.2393 8.74133C20.0655 8.91376 19.8501 8.99998 19.5932 8.99998H14.1527C13.8958 8.99998 13.6811 8.91376 13.5087 8.74133C13.3362 8.56889 13.25 8.35224 13.25 8.09138ZM3.5 11.5999V4.39983C3.5 4.14483 3.5869 3.93111 3.7607 3.75868C3.9345 3.58623 4.14986 3.5 4.40677 3.5H9.84728C10.1042 3.5 10.3189 3.58626 10.4913 3.75878C10.6637 3.93128 10.75 4.14503 10.75 4.40003V11.6001C10.75 11.8551 10.6631 12.0688 10.4893 12.2413C10.3155 12.4137 10.1001 12.5 9.8432 12.5H4.40267C4.14577 12.5 3.93111 12.4137 3.75868 12.2412C3.58623 12.0687 3.5 11.8549 3.5 11.5999ZM13.25 19.5999V12.3998C13.25 12.1448 13.3369 11.9311 13.5107 11.7587C13.6845 11.5862 13.8998 11.5 14.1568 11.5H19.5973C19.8542 11.5 20.0688 11.5863 20.2413 11.7588C20.4137 11.9313 20.5 12.145 20.5 12.4V19.6001C20.5 19.8551 20.413 20.0688 20.2393 20.2413C20.0655 20.4137 19.8501 20.5 19.5932 20.5H14.1527C13.8958 20.5 13.6811 20.4137 13.5087 20.2412C13.3362 20.0687 13.25 19.8549 13.25 19.5999ZM3.5 19.5914V15.9086C3.5 15.6477 3.5869 15.4311 3.7607 15.2586C3.9345 15.0862 4.14986 15 4.40677 15H9.84728C10.1042 15 10.3189 15.0862 10.4913 15.2586C10.6637 15.4311 10.75 15.6477 10.75 15.9086V19.5914C10.75 19.8522 10.6631 20.0688 10.4893 20.2413C10.3155 20.4137 10.1001 20.5 9.8432 20.5H4.40267C4.14577 20.5 3.93111 20.4137 3.75868 20.2413C3.58623 20.0688 3.5 19.8522 3.5 19.5914ZM4.99997 11H9.25V4.99998H4.99997V11ZM14.75 19H19V13H14.75V19ZM14.75 7.5H19V4.99998H14.75V7.5ZM4.99997 19H9.25V16.5H4.99997V19Z" fill="#4A4B4F"/>
</g>
</svg>
