<svg width="24" height="24" viewBox="0 0 24 24" fill="none" xmlns="http://www.w3.org/2000/svg">
<mask id="mask0_196_5947" style="mask-type:alpha" maskUnits="userSpaceOnUse" x="0" y="0" width="24" height="24">
<rect width="24" height="24" fill="#D9D9D9"/>
</mask>
<g mask="url(#mask0_196_5947)">
<path d="M12.0004 14.6749C11.8837 14.6749 11.7714 14.6539 11.6634 14.6119C11.5547 14.5706 11.4587 14.5082 11.3754 14.4249L6.87539 9.9249C6.72539 9.7749 6.65039 9.5999 6.65039 9.3999C6.65039 9.1999 6.72539 9.0249 6.87539 8.8749C7.02539 8.7249 7.20039 8.6499 7.40039 8.6499C7.60039 8.6499 7.77539 8.7249 7.92539 8.8749L12.0004 12.9499L16.0754 8.8749C16.2254 8.7249 16.4004 8.6499 16.6004 8.6499C16.8004 8.6499 16.9754 8.7249 17.1254 8.8749C17.2754 9.0249 17.3504 9.1999 17.3504 9.3999C17.3504 9.5999 17.2754 9.7749 17.1254 9.9249L12.6254 14.4249C12.5421 14.5082 12.4464 14.5706 12.3384 14.6119C12.2297 14.6539 12.1171 14.6749 12.0004 14.6749Z" fill="#4A4B4F"/>
</g>
</svg>
