<svg width="24" height="24" viewBox="0 0 24 24" fill="none" xmlns="http://www.w3.org/2000/svg">
<mask id="mask0_196_5906" style="mask-type:alpha" maskUnits="userSpaceOnUse" x="0" y="0" width="24" height="24">
<rect width="24" height="24" fill="#D9D9D9"/>
</mask>
<g mask="url(#mask0_196_5906)">
<path d="M8.99997 11.75C8.78716 11.75 8.60896 11.6782 8.46537 11.5346C8.32179 11.391 8.25 11.2128 8.25 11C8.25 10.7872 8.32179 10.609 8.46537 10.4654C8.60896 10.3218 8.78716 10.25 8.99997 10.25H15C15.2128 10.25 15.391 10.3218 15.5346 10.4654C15.6782 10.609 15.75 10.7872 15.75 11C15.75 11.2128 15.6782 11.391 15.5346 11.5346C15.391 11.6782 15.2128 11.75 15 11.75H8.99997ZM8.99997 7.74995C8.78716 7.74995 8.60896 7.67816 8.46537 7.53458C8.32179 7.39099 8.25 7.21279 8.25 6.99998C8.25 6.78716 8.32179 6.60896 8.46537 6.46538C8.60896 6.32179 8.78716 6.25 8.99997 6.25H15C15.2128 6.25 15.391 6.32179 15.5346 6.46538C15.6782 6.60896 15.75 6.78716 15.75 6.99998C15.75 7.21279 15.6782 7.39099 15.5346 7.53458C15.391 7.67816 15.2128 7.74995 15 7.74995H8.99997ZM5.99997 14.25H13.5C13.9448 14.25 14.3564 14.3462 14.7346 14.5385C15.1128 14.7308 15.4339 15.0026 15.698 15.3538L18 18.3539V4.3077C18 4.21795 17.9711 4.14423 17.9134 4.08653C17.8557 4.02883 17.782 3.99998 17.6922 3.99998H6.3077C6.21795 3.99998 6.14423 4.02883 6.08652 4.08653C6.02882 4.14423 5.99997 4.21795 5.99997 4.3077V14.25ZM6.3077 20H17.3673L14.5173 16.2711C14.3916 16.1057 14.242 15.9775 14.0683 15.8865C13.8945 15.7955 13.7051 15.75 13.5 15.75H5.99997V19.6923C5.99997 19.782 6.02882 19.8557 6.08652 19.9134C6.14423 19.9711 6.21795 20 6.3077 20ZM17.6922 21.5H6.3077C5.80257 21.5 5.375 21.325 5.025 20.975C4.675 20.625 4.5 20.1974 4.5 19.6923V4.3077C4.5 3.80257 4.675 3.375 5.025 3.025C5.375 2.675 5.80257 2.5 6.3077 2.5H17.6922C18.1974 2.5 18.625 2.675 18.975 3.025C19.325 3.375 19.5 3.80257 19.5 4.3077V19.6923C19.5 20.1974 19.325 20.625 18.975 20.975C18.625 21.325 18.1974 21.5 17.6922 21.5Z" fill="#4A4B4F"/>
</g>
</svg>
