<svg width="68" height="20" viewBox="0 0 68 20" fill="none" xmlns="http://www.w3.org/2000/svg">
<rect x="53.5176" width="1.25926" height="20" fill="#17181C"/>
<rect x="37.7773" width="1.25926" height="20" fill="#17181C"/>
<rect x="13.2227" width="1.25926" height="20" fill="#17181C"/>
<rect x="51.6289" width="1.25926" height="20" fill="#17181C"/>
<rect x="35.2598" width="1.25926" height="20" fill="#17181C"/>
<rect x="10.7031" width="1.25926" height="20" fill="#17181C"/>
<rect x="66.7402" width="1.25926" height="20" fill="#17181C"/>
<rect x="42.1855" width="0.62963" height="20" fill="#17181C"/>
<rect x="17.6289" width="0.62963" height="20" fill="#17181C"/>
<rect x="26.4453" width="0.62963" height="20" fill="#17181C"/>
<rect x="45.334" width="0.62963" height="20" fill="#17181C"/>
<rect x="20.7773" width="0.62963" height="20" fill="#17181C"/>
<rect x="29.5918" width="2.51852" height="20" fill="#17181C"/>
<rect x="57.9258" width="0.62963" height="20" fill="#17181C"/>
<rect x="50.3711" width="0.62963" height="20" fill="#17181C"/>
<rect x="33.3711" width="0.62963" height="20" fill="#17181C"/>
<rect x="8.81445" width="0.62963" height="20" fill="#17181C"/>
<rect x="65.4824" width="0.62963" height="20" fill="#17181C"/>
<rect x="40.2969" width="0.62963" height="20" fill="#17181C"/>
<rect x="15.7402" width="0.62963" height="20" fill="#17181C"/>
<rect x="44.0742" width="0.62963" height="20" fill="#17181C"/>
<rect x="19.5176" width="0.62963" height="20" fill="#17181C"/>
<rect x="28.334" width="0.62963" height="20" fill="#17181C"/>
<rect x="56.0371" width="0.62963" height="20" fill="#17181C"/>
<rect x="59.8145" width="5.03704" height="20" fill="#17181C"/>
<rect x="47.2227" width="2.51852" height="20" fill="#17181C"/>
<rect x="22.666" width="2.51852" height="20" fill="#17181C"/>
<rect x="5.03711" width="2.51852" height="20" fill="#17181C"/>
<rect width="3.77778" height="20" fill="#17181C"/>
</svg>
