<svg width="24" height="24" viewBox="0 0 24 24" fill="none" xmlns="http://www.w3.org/2000/svg">
<mask id="mask0_11_107" style="mask-type:alpha" maskUnits="userSpaceOnUse" x="0" y="0" width="24" height="24">
<rect width="24" height="24" fill="#D9D9D9"/>
</mask>
<g mask="url(#mask0_11_107)">
<path d="M12 13C11.6319 13 11.319 12.8712 11.0614 12.6136C10.8038 12.356 10.675 12.0431 10.675 11.675V3.84453C10.675 3.47641 10.8038 3.16355 11.0614 2.90593C11.319 2.64833 11.6319 2.51953 12 2.51953C12.3681 2.51953 12.681 2.64833 12.9386 2.90593C13.1962 3.16355 13.325 3.47641 13.325 3.84453V11.675C13.325 12.0431 13.1962 12.356 12.9386 12.6136C12.681 12.8712 12.3681 13 12 13ZM12 21.4804C10.6935 21.4804 9.46375 21.2312 8.31083 20.7326C7.15793 20.2341 6.15376 19.5571 5.29833 18.7016C4.4429 17.8462 3.76591 16.842 3.26736 15.6891C2.76881 14.5362 2.51953 13.3065 2.51953 12C2.51953 10.8688 2.71137 9.77823 3.09506 8.72823C3.47876 7.67823 4.03872 6.72352 4.77496 5.86411C5.01481 5.57932 5.32586 5.42752 5.70811 5.40868C6.09036 5.38983 6.41917 5.51338 6.69453 5.77933C6.94382 6.01918 7.06719 6.32136 7.06466 6.68586C7.06212 7.05036 6.95035 7.37862 6.72933 7.67066C6.23078 8.28297 5.84618 8.95562 5.57553 9.68858C5.30488 10.4215 5.16956 11.192 5.16956 12C5.16956 13.9029 5.83224 15.517 7.15761 16.8424C8.48296 18.1677 10.0971 18.8304 12 18.8304C13.9029 18.8304 15.517 18.1677 16.8424 16.8424C18.1677 15.517 18.8304 13.9029 18.8304 12C18.8304 11.2014 18.6909 10.4273 18.4119 9.67771C18.1329 8.92807 17.7442 8.2471 17.2456 7.63478C17.0246 7.35 16.917 7.02952 16.9228 6.67336C16.9286 6.31719 17.0561 6.01918 17.3054 5.77933C17.5808 5.51338 17.9096 5.38983 18.2919 5.40868C18.6741 5.42752 18.9852 5.57932 19.225 5.86411C19.9612 6.72352 20.5212 7.67823 20.9049 8.72823C21.2886 9.77823 21.4804 10.8688 21.4804 12C21.4804 13.3065 21.2312 14.5362 20.7326 15.6891C20.2341 16.842 19.5571 17.8462 18.7016 18.7016C17.8462 19.5571 16.842 20.2341 15.6891 20.7326C14.5362 21.2312 13.3065 21.4804 12 21.4804Z" fill="white"/>
</g>
</svg>
