<svg width="24" height="24" viewBox="0 0 24 24" fill="none" xmlns="http://www.w3.org/2000/svg">
<mask id="mask0_196_5902" style="mask-type:alpha" maskUnits="userSpaceOnUse" x="0" y="0" width="24" height="24">
<rect width="24" height="24" fill="#D9D9D9"/>
</mask>
<g mask="url(#mask0_196_5902)">
<path d="M4.3077 19.5C3.80257 19.5 3.375 19.325 3.025 18.975C2.675 18.625 2.5 18.1974 2.5 17.6923V6.3077C2.5 5.80257 2.675 5.375 3.025 5.025C3.375 4.675 3.80257 4.5 4.3077 4.5H8.11538C8.32819 4.5 8.50639 4.5718 8.64998 4.7154C8.79356 4.85898 8.86535 5.03718 8.86535 5.25C8.86535 5.46282 8.79356 5.64102 8.64998 5.7846C8.50639 5.92818 8.32819 5.99998 8.11538 5.99998H4.3077C4.23077 5.99998 4.16024 6.03203 4.09613 6.09613C4.03202 6.16024 3.99998 6.23077 3.99998 6.3077V17.6923C3.99998 17.7692 4.03202 17.8397 4.09613 17.9038C4.16024 17.9679 4.23077 18 4.3077 18H19.6923C19.7692 18 19.8397 17.9679 19.9038 17.9038C19.9679 17.8397 20 17.7692 20 17.6923V6.3077C20 6.23077 19.9679 6.16024 19.9038 6.09613C19.8397 6.03203 19.7692 5.99998 19.6923 5.99998H15.8846C15.6718 5.99998 15.4936 5.92818 15.35 5.7846C15.2064 5.64102 15.1346 5.46282 15.1346 5.25C15.1346 5.03718 15.2064 4.85898 15.35 4.7154C15.4936 4.5718 15.6718 4.5 15.8846 4.5H19.6923C20.1974 4.5 20.625 4.675 20.975 5.025C21.325 5.375 21.5 5.80257 21.5 6.3077V17.6923C21.5 18.1974 21.325 18.625 20.975 18.975C20.625 19.325 20.1974 19.5 19.6923 19.5H4.3077ZM11.25 12.2923V5.25C11.25 5.03718 11.3218 4.85898 11.4654 4.7154C11.609 4.5718 11.7872 4.5 12 4.5C12.2128 4.5 12.391 4.5718 12.5346 4.7154C12.6782 4.85898 12.75 5.03718 12.75 5.25V12.2923L15.0731 9.96923C15.2115 9.83078 15.3856 9.75994 15.5952 9.75673C15.8048 9.75353 15.982 9.82436 16.1269 9.96923C16.2718 10.1141 16.3442 10.2897 16.3442 10.4961C16.3442 10.7025 16.2718 10.8782 16.1269 11.023L12.6327 14.5173C12.4519 14.698 12.241 14.7884 12 14.7884C11.759 14.7884 11.5481 14.698 11.3673 14.5173L7.87308 11.023C7.73461 10.8846 7.66378 10.7106 7.66058 10.501C7.65736 10.2913 7.72819 10.1141 7.87308 9.96923C8.01794 9.82436 8.19358 9.75193 8.39998 9.75193C8.60638 9.75193 8.78201 9.82436 8.92688 9.96923L11.25 12.2923Z" fill="#17181C"/>
</g>
</svg>
